{"accessors" : [{"bufferView" : 0, "byteOffset" : 0, "componentType" : 5123, "count" : 4494, "type" : "SCALAR", "max" : [868], "min" : [0]}, {"bufferView" : 1, "byteOffset" : 0, "componentType" : 5126, "count" : 869, "type" : "VEC3", "max" : [1.271008014678955, 0.6493179798126221, 1.2603299617767334], "min" : [-1.2618529796600342, -1.8378239870071411, -1.2864840030670166], "name" : "POSITION"}, {"bufferView" : 1, "byteOffset" : 12, "componentType" : 5126, "count" : 869, "type" : "VEC2", "max" : [1, 1], "min" : [0, 0.22628998756408691], "name" : "TEXCOORD_0"}, {"bufferView" : 1, "byteOffset" : 20, "componentType" : 5126, "count" : 869, "type" : "VEC3", "max" : [0.9945290088653564, 0.9923981428146362, 1.0000044107437134], "min" : [-0.9945290088653564, -1.0000044107437134, -1.0000044107437134], "name" : "NORMAL"}, {"bufferView" : 0, "byteOffset" : 8988, "componentType" : 5123, "count" : 222, "type" : "SCALAR", "max" : [75], "min" : [0]}, {"bufferView" : 2, "byteOffset" : 0, "componentType" : 5126, "count" : 76, "type" : "VEC3", "max" : [0.6344519853591919, -0.7491220235824585, 1.249472975730896], "min" : [-0.6220560073852539, -1.7560579776763916, 0.4978789985179901], "name" : "POSITION"}, {"bufferView" : 2, "byteOffset" : 12, "componentType" : 5126, "count" : 76, "type" : "VEC3", "max" : [-0, -0.5981771349906921, 0.8013693690299988], "min" : [-0, -0.5981771349906921, 0.8013693690299988], "name" : "NORMAL"}, {"bufferView" : 0, "byteOffset" : 9432, "componentType" : 5123, "count" : 185760, "type" : "SCALAR", "max" : [32528], "min" : [0]}, {"bufferView" : 3, "byteOffset" : 0, "componentType" : 5126, "count" : 32529, "type" : "VEC3", "max" : [1.0415509939193726, 0.5959190130233765, 1.0198630094528198], "min" : [-1.0380890369415283, 0.22233699262142181, -1.060088038444519], "name" : "POSITION"}, {"bufferView" : 3, "byteOffset" : 12, "componentType" : 5126, "count" : 32529, "type" : "VEC2", "max" : [1, 1], "min" : [0, 0], "name" : "TEXCOORD_0"}, {"bufferView" : 3, "byteOffset" : 20, "componentType" : 5126, "count" : 32529, "type" : "VEC3", "max" : [0.9984151721000671, 0.9997156858444214, 0.9993228912353516], "min" : [-0.9972532391548157, -0.9997115135192871, -0.9993284940719604], "name" : "NORMAL"}, {"bufferView" : 0, "byteOffset" : 380952, "componentType" : 5123, "count" : 185760, "type" : "SCALAR", "max" : [32528], "min" : [0]}, {"bufferView" : 4, "byteOffset" : 0, "componentType" : 5126, "count" : 32529, "type" : "VEC3", "max" : [1.0415509939193726, 0.5959190130233765, 1.0198630094528198], "min" : [-1.0380890369415283, 0.22233699262142181, -1.060088038444519], "name" : "POSITION"}, {"bufferView" : 4, "byteOffset" : 12, "componentType" : 5126, "count" : 32529, "type" : "VEC2", "max" : [1, 1], "min" : [0, 0], "name" : "TEXCOORD_0"}, {"bufferView" : 4, "byteOffset" : 20, "componentType" : 5126, "count" : 32529, "type" : "VEC3", "max" : [0.9984151721000671, 0.9997156858444214, 0.9993228912353516], "min" : [-0.9972532391548157, -0.9997115135192871, -0.9993284940719604], "name" : "NORMAL"}, {"bufferView" : 0, "byteOffset" : 752472, "componentType" : 5123, "count" : 666, "type" : "SCALAR", "max" : [225], "min" : [0]}, {"bufferView" : 5, "byteOffset" : 0, "componentType" : 5126, "count" : 226, "type" : "VEC3", "max" : [1.0880450010299683, 0.6596440076828003, 1.070402979850769], "min" : [-1.0777779817581177, 0.16786600649356842, -1.0954209566116333], "name" : "POSITION"}, {"bufferView" : 5, "byteOffset" : 12, "componentType" : 5126, "count" : 226, "type" : "VEC2", "max" : [1, 0.9899759888648987], "min" : [0, 0], "name" : "TEXCOORD_0"}, {"bufferView" : 5, "byteOffset" : 20, "componentType" : 5126, "count" : 226, "type" : "VEC3", "max" : [1.0000044107437134, 0.9993538856506348, 1.0000044107437134], "min" : [-1.0000044107437134, -0, -1.0000044107437134], "name" : "NORMAL"}], "asset" : {"generator" : "Aspose.3D 24.6.0", "version" : "2.0"}, "buffers" : [{"uri" : "data:application/octet-stream;base64,", "byteLength" : 2872548}], "bufferViews" : [{"buffer" : 0, "byteOffset" : 0, "byteLength" : 753804, "target" : 34963}, {"buffer" : 0, "byteOffset" : 753808, "byteLength" : 27808, "byteStride" : 32, "target" : 34962}, {"buffer" : 0, "byteOffset" : 781620, "byteLength" : 1824, "byteStride" : 24, "target" : 34962}, {"buffer" : 0, "byteOffset" : 783448, "byteLength" : 1040928, "byteStride" : 32, "target" : 34962}, {"buffer" : 0, "byteOffset" : 1824380, "byteLength" : 1040928, "byteStride" : 32, "target" : 34962}, {"buffer" : 0, "byteOffset" : 2865312, "byteLength" : 7232, "byteStride" : 32, "target" : 34962}], "meshes" : [{"primitives" : [{"attributes" : {"POSITION" : 1, "TEXCOORD_0" : 2, "NORMAL" : 3}, "indices" : 0, "mode" : 4}], "name" : ""}, {"primitives" : [{"attributes" : {"POSITION" : 5, "NORMAL" : 6}, "indices" : 4, "mode" : 4}], "name" : ""}, {"primitives" : [{"attributes" : {"POSITION" : 8, "TEXCOORD_0" : 9, "NORMAL" : 10}, "indices" : 7, "mode" : 4}], "name" : ""}, {"primitives" : [{"attributes" : {"POSITION" : 12, "TEXCOORD_0" : 13, "NORMAL" : 14}, "indices" : 11, "mode" : 4}], "name" : ""}, {"primitives" : [{"attributes" : {"POSITION" : 16, "TEXCOORD_0" : 17, "NORMAL" : 18}, "indices" : 15, "mode" : 4}], "name" : ""}], "nodes" : [{"mesh" : 0, "name" : "Sphere_Sphere"}, {"mesh" : 1, "name" : "Circle.001_Circle.001"}, {"mesh" : 2, "name" : "Spiral.002_Spiral.002"}, {"mesh" : 3, "name" : "Spiral.002_Spiral.002"}, {"mesh" : 4, "name" : "Cylinder_Cylinder"}], "scene" : 0, "scenes" : [{"nodes" : [0, 1, 2, 3, 4]}]}